<?xml version="1.0" encoding="UTF-8" standalone="no"?>
<svg width="456" height="456" viewBox="0 0 456 456" version="1.1" xmlns="http://www.w3.org/2000/svg">
    <!-- Background with app's primary blue -->
    <rect x="0" y="0" width="456" height="456" fill="#1A8FE3" rx="64" />
    
    <!-- Calculator display area -->
    <rect x="50" y="80" width="356" height="100" fill="#03045e" rx="20" />
    
    <!-- Display text showing a math equation -->
    <text x="228" y="140" text-anchor="middle" fill="#00bbf9" font-family="Arial, sans-serif" font-size="36" font-weight="bold">7 × 8 = ?</text>
    
    <!-- Calculator buttons grid -->
    <!-- Top row -->
    <rect x="70" y="220" width="60" height="50" fill="#f8961e" rx="10" />
    <text x="100" y="250" text-anchor="middle" fill="white" font-family="Arial, sans-serif" font-size="24" font-weight="bold">7</text>
    
    <rect x="150" y="220" width="60" height="50" fill="#f8961e" rx="10" />
    <text x="180" y="250" text-anchor="middle" fill="white" font-family="Arial, sans-serif" font-size="24" font-weight="bold">8</text>
    
    <rect x="230" y="220" width="60" height="50" fill="#f8961e" rx="10" />
    <text x="260" y="250" text-anchor="middle" fill="white" font-family="Arial, sans-serif" font-size="24" font-weight="bold">9</text>
    
    <rect x="310" y="220" width="60" height="50" fill="#00bbf9" rx="10" />
    <text x="340" y="250" text-anchor="middle" fill="white" font-family="Arial, sans-serif" font-size="24" font-weight="bold">×</text>
    
    <!-- Second row -->
    <rect x="70" y="290" width="60" height="50" fill="#f8961e" rx="10" />
    <text x="100" y="320" text-anchor="middle" fill="white" font-family="Arial, sans-serif" font-size="24" font-weight="bold">4</text>
    
    <rect x="150" y="290" width="60" height="50" fill="#f8961e" rx="10" />
    <text x="180" y="320" text-anchor="middle" fill="white" font-family="Arial, sans-serif" font-size="24" font-weight="bold">5</text>
    
    <rect x="230" y="290" width="60" height="50" fill="#f8961e" rx="10" />
    <text x="260" y="320" text-anchor="middle" fill="white" font-family="Arial, sans-serif" font-size="24" font-weight="bold">6</text>
    
    <rect x="310" y="290" width="60" height="50" fill="#00bbf9" rx="10" />
    <text x="340" y="320" text-anchor="middle" fill="white" font-family="Arial, sans-serif" font-size="24" font-weight="bold">+</text>
    
    <!-- Third row -->
    <rect x="70" y="360" width="60" height="50" fill="#f8961e" rx="10" />
    <text x="100" y="390" text-anchor="middle" fill="white" font-family="Arial, sans-serif" font-size="24" font-weight="bold">1</text>
    
    <rect x="150" y="360" width="60" height="50" fill="#f8961e" rx="10" />
    <text x="180" y="390" text-anchor="middle" fill="white" font-family="Arial, sans-serif" font-size="24" font-weight="bold">2</text>
    
    <rect x="230" y="360" width="60" height="50" fill="#f8961e" rx="10" />
    <text x="260" y="390" text-anchor="middle" fill="white" font-family="Arial, sans-serif" font-size="24" font-weight="bold">3</text>
    
    <rect x="310" y="360" width="60" height="50" fill="#fee440" rx="10" />
    <text x="340" y="390" text-anchor="middle" fill="#000" font-family="Arial, sans-serif" font-size="20" font-weight="bold">=</text>
    
    <!-- Brain icon to represent mental training -->
    <g transform="translate(380, 40)">
        <circle cx="0" cy="0" r="25" fill="#9b5de5" opacity="0.9"/>
        <text x="0" y="8" text-anchor="middle" fill="white" font-family="Arial, sans-serif" font-size="32">🧠</text>
    </g>
</svg>
