<?xml version="1.0" encoding="utf-8"?>
<svg version="1.1" id="Layer_1" xmlns="http://www.w3.org/2000/svg" x="0px" y="0px" width="201px" height="55px" viewBox="0 0 201 55" enable-background="new 0 0 201 55" xmlns:bx="https://boxy-svg.com"><defs><bx:export><bx:file format="svg" path="Bez nazwy.svg"/></bx:export></defs><g><g><g><polygon points="11.388,54.74 0.5,44.07 11.388,44.07 &#9;&#9;" style="fill: rgb(255, 255, 255);"/><path d="M39.436,0.26H5.204C2.617,0.26,0.5,2.376,0.5,4.963V36.23v3.136v4.704h4.704H8.34h31.097 c2.587,0,4.704-2.117,4.704-4.704V4.963C44.14,2.376,42.023,0.26,39.436,0.26z" style="fill: rgb(26, 143, 227);"/></g><text style="fill: rgb(255, 255, 255); font-family: Stencil; font-size: 22px; white-space: pre;" x="49.814" y="35.618">Calc Trainer</text></g></g><g id="svg-1" style="" transform="matrix(0.16976, 0, 0, 0.16976, 9.115448, 15.267402)"><g transform="matrix(0.1, 0, 0, -0.1, -148.675603, 317.663553)"><path fill="#FFFFFF" d="M1665.495,3517.998c-23.75-10.942-87.085-84.136-132.075-153.545 c-81.25-124.517-130-262.495-144.99-412.256c-9.175-93.384-3.755-119.893,28.325-138.389c20.415-11.367,37.915-11.787,59.165-0.85 c22.5,11.357,33.33,33.652,33.33,67.31c0,13.877,2.08,43.745,4.58,66.46c17.92,166.162,84.165,315.083,197.075,443.804 c27.915,31.548,40,48.799,40.835,56.787c1.245,23.979-2.08,37.021-12.085,50.903 C1721.74,3521.782,1691.74,3529.775,1665.495,3517.998z"/><path fill="#FFFFFF" d="M2844.602,3517.998c-27.5-12.202-42.09-42.07-35.42-71.938c2.09-9.673,14.16-26.919,34.17-49.639 c59.58-66.885,92.08-114.844,128.33-187.617c47.49-95.913,79.16-227.578,79.16-328.535c0-32.813,10.41-53.843,32.49-66.46 c20.42-11.367,37.92-11.787,59.17-0.85c32.5,16.826,38.33,45.43,29.17,139.238c-20.01,199.819-104.17,387.017-238.75,532.563 C2897.932,3522.622,2874.592,3531.455,2844.602,3517.998z"/><path fill="#FFFFFF" d="M2095.051,2102.031c-39.165-12.197-56.25-66.045-31.245-98.438c13.745-17.666,29.58-23.555,88.33-31.973 c91.245-13.877,240.825-9.668,306.646,8.418c48.34,13.037,65.42,66.045,33.33,103.066c-17.91,20.615-36.25,24.814-74.99,16.406 c-19.17-4.209-63.33-7.148-116.24-8.838c-82.5-2.1-97.5-0.84-181.245,13.047C2112.971,2104.98,2101.721,2104.14,2095.051,2102.031z "/></g><g transform="matrix(1, 0, 0, 1, -148.675603, -194.336477)"><path fill="#FFFFFF" d="M160.158,322.216c-8.746-0.744-19.631-5.489-19.631-15.724c0-5.675,4.094-10.142,9.955-10.142 c4.652,0,9.397,4.28,9.397,9.025c0,6.421-5.21,7.815-5.21,9.398c0,1.488,4.188,1.86,5.49,1.953L160.158,322.216L160.158,322.216z M160.158,255.6c-1.488,0.279-3.908,1.023-3.908,2.698c0,2.047,4.746,2.233,4.746,8.374c0,4.744-4.095,9.117-8.933,9.117 c-5.397,0-9.211-4-9.211-9.304c0-9.49,8.838-15.072,17.305-16.374L160.158,255.6L160.158,255.6z M175.231,285.465 c10.141,2.792,15.724,7.352,15.724,17.026c0,8.467-5.303,20.19-26.61,19.726v-5.489c4.374-1.022,5.769-4.002,5.769-8.373v-12.467 c0-4.28-0.651-8.001-6.048-8.28c-1.768-0.093-3.814-0.279-3.814-2.605c0-2.419,1.861-2.604,3.814-2.791 c5.955-0.558,6.048-6.605,6.048-7.536v-10.792c0-4.188-1.303-7.536-5.769-8.56v-5.489c18.515-0.837,25.493,10.606,25.493,18.421 c0,9.212-6.14,14.888-14.607,17.026V285.465L175.231,285.465z"/><path fill="#FFFFFF" d="M222.413,200.595c-8.403-0.369-19.023-6.095-19.023-15.513c0-5.726,4.248-10.25,9.973-10.25 c5.08,0,9.235,4.063,9.143,9.05c-0.092,5.817-4.802,7.664-4.802,8.772c0,1.477,3.51,2.216,4.709,2.493V200.595L222.413,200.595z M213.179,150.176l-0.923,10.804c2.678-2.494,6.187-4.894,10.157-5.725v7.203c-3.231,0.739-6.28,1.754-9.235,3.602 c-1.016,0.646-2.308,1.477-3.509,1.477c-1.754,0-3.047-0.923-3.047-2.678l1.385-15.236L213.179,150.176z M228.97,130.323 c6.556,0.554,16.437,0.185,21.238-1.57c-1.385,5.633-4.617,9.973-9.051,13.297c-5.909,4.249-11.819,4.895-18.93,4.895l-14.22-1.016 l1.847-17.175L228.97,130.323z M226.661,195.239c4.894-1.386,5.264-6.464,5.264-9.788v-13.205c0-3.231-0.37-8.403-5.264-9.788 v-7.479c14.22-0.277,25.949,7.295,25.949,22.808c0,15.514-11.728,23.086-25.949,22.809V195.239z"/><path fill="#FFFFFF" d="M276.188,257.074c5.599-4.648,7.685-7.399,15.56-7.399c4.174,0,6.734,1.044,10.719,2.276 c1.613,0.569,5.313,1.802,6.831,1.802c1.518,0,2.182-0.568,3.225-1.518c0.569-0.474,0.949-1.044,1.709-1.044 c1.232,0,1.991,1.044,1.991,2.183c0,2.276-2.183,7.115-3.32,9.012c-2.372,3.983-7.21,5.787-12.902,5.787 c-6.641,0-14.42-3.7-21.155-2.751c-4.459,0.664-4.934,3.51-5.028,7.021v0.759h-3.983l3.32-22.198h3.794L276.188,257.074z M301.614,273.201c2.276-0.189,4.554-0.949,6.641-1.802c-7.021,13.756-7.969,20.965-6.167,30.358c0.569,2.94,1.14,5.217,1.14,8.348 c0,6.07-4.08,12.238-11.1,12.238c-7.97,0-11.574-6.83-11.574-14.041C280.553,293.313,294.782,284.965,301.614,273.201z"/><g><path fill="#FFFFFF" d="M252.21,236.088l-18.846,3.852l13.068,16.713l-7.565,5.227l-10.729-18.226l-10.867,18.226l-7.567-5.227 l13.068-16.713l-18.983-3.852l3.095-8.598l18.02,6.81l-1.583-20.91h9.493l-1.583,20.91l18.089-6.81L252.21,236.088z"/></g></g></g></svg>